<svg width="2235" height="549" viewBox="0 0 2235 549" fill="none" xmlns="http://www.w3.org/2000/svg">
<rect x="149.999" y="125" width="200" height="200" rx="100" stroke="white" stroke-width="50"/>
<line x1="120.065" y1="402.066" x2="380.064" y2="402.918" stroke="url(#paint0_linear_236_774)" stroke-width="40" stroke-linecap="round"/>
<line x1="500.249" y1="60" x2="500.249" y2="489" stroke="#989BA2" stroke-width="0.5"/>
<path d="M598.399 382.5V172.5H606.799L705.799 344.4H701.299L799.699 172.5H808.099L808.399 382.5H798.499L798.199 187.5H801.499L706.099 353.4H700.699L604.699 187.5H608.299V382.5H598.399ZM941.315 383.4C925.915 383.4 912.315 380.1 900.515 373.5C888.715 366.7 879.415 357.3 872.615 345.3C865.815 333.3 862.415 319.7 862.415 304.5C862.415 289.1 865.515 275.5 871.715 263.7C878.115 251.9 886.815 242.6 897.815 235.8C909.015 229 921.615 225.6 935.615 225.6C949.415 225.6 961.815 228.9 972.815 235.5C984.015 242.1 992.715 251.3 998.915 263.1C1005.31 274.7 1008.51 288.1 1008.51 303.3C1008.51 303.7 1008.51 304.2 1008.51 304.8C1008.51 305.2 1008.51 305.6 1008.51 306H869.015V297.9H1003.11L999.215 302.7C999.215 289.7 996.415 278.1 990.815 267.9C985.415 257.5 977.915 249.4 968.315 243.6C958.715 237.6 947.815 234.6 935.615 234.6C923.415 234.6 912.515 237.6 902.915 243.6C893.315 249.4 885.715 257.5 880.115 267.9C874.715 278.1 872.015 289.8 872.015 303V304.8C872.015 318.4 875.015 330.5 881.015 341.1C887.015 351.5 895.215 359.7 905.615 365.7C916.015 371.5 927.915 374.4 941.315 374.4C951.515 374.4 961.115 372.5 970.115 368.7C979.315 364.9 986.915 359.1 992.915 351.3L999.215 357.9C992.215 366.3 983.615 372.7 973.415 377.1C963.415 381.3 952.715 383.4 941.315 383.4ZM1099.66 383.4C1086.86 383.4 1077.06 379.8 1070.26 372.6C1063.46 365.4 1060.06 355.7 1060.06 343.5V192.6H1069.96V342C1069.96 352.6 1072.56 360.7 1077.76 366.3C1082.96 371.9 1090.56 374.7 1100.56 374.7C1110.76 374.7 1119.16 371.6 1125.76 365.4L1130.86 372.6C1127.06 376.2 1122.36 378.9 1116.76 380.7C1111.16 382.5 1105.46 383.4 1099.66 383.4ZM1030.66 235.5V226.8H1121.26V235.5H1030.66ZM1273.84 382.5V346.2L1273.54 340.8V281.7C1273.54 266.3 1269.44 254.6 1261.24 246.6C1253.04 238.6 1241.14 234.6 1225.54 234.6C1214.14 234.6 1203.74 236.6 1194.34 240.6C1184.94 244.4 1176.84 249.4 1170.04 255.6L1164.64 248.4C1172.04 241.4 1181.14 235.9 1191.94 231.9C1202.74 227.7 1214.04 225.6 1225.84 225.6C1244.44 225.6 1258.64 230.4 1268.44 240C1278.44 249.4 1283.44 263.3 1283.44 281.7V382.5H1273.84ZM1215.94 383.4C1204.14 383.4 1194.04 381.6 1185.64 378C1177.44 374.4 1171.14 369.3 1166.74 362.7C1162.34 355.9 1160.14 348.2 1160.14 339.6C1160.14 332 1161.94 325 1165.54 318.6C1169.14 312 1175.04 306.8 1183.24 303C1191.64 299 1202.84 297 1216.84 297H1277.14V305.1H1216.84C1199.84 305.1 1187.74 308.3 1180.54 314.7C1173.54 321.1 1170.04 329.2 1170.04 339C1170.04 350 1174.14 358.8 1182.34 365.4C1190.54 371.8 1201.94 375 1216.54 375C1230.94 375 1242.84 371.8 1252.24 365.4C1261.64 358.8 1268.74 349.5 1273.54 337.5L1276.84 344.1C1272.84 355.9 1265.64 365.4 1255.24 372.6C1244.84 379.8 1231.74 383.4 1215.94 383.4ZM1346.48 382.5V172.5H1428.38C1446.78 172.5 1462.48 175.4 1475.48 181.2C1488.48 187 1498.48 195.4 1505.48 206.4C1512.48 217.4 1515.98 230.5 1515.98 245.7C1515.98 260.9 1512.48 274 1505.48 285C1498.48 295.8 1488.48 304.1 1475.48 309.9C1462.48 315.7 1446.78 318.6 1428.38 318.6H1362.98L1376.48 304.8V382.5H1346.48ZM1486.88 382.5L1433.48 306.3H1465.58L1519.58 382.5H1486.88ZM1376.48 307.8L1362.98 293.1H1427.48C1446.68 293.1 1461.18 289 1470.98 280.8C1480.98 272.4 1485.98 260.7 1485.98 245.7C1485.98 230.7 1480.98 219.1 1470.98 210.9C1461.18 202.7 1446.68 198.6 1427.48 198.6H1362.98L1376.48 183.6V307.8ZM1631.05 384.3C1614.05 384.3 1599.05 380.8 1586.05 373.8C1573.25 366.8 1563.25 357.2 1556.05 345C1549.05 332.8 1545.55 318.8 1545.55 303C1545.55 287.2 1548.95 273.2 1555.75 261C1562.75 248.8 1572.25 239.3 1584.25 232.5C1596.45 225.5 1610.15 222 1625.35 222C1640.75 222 1654.35 225.4 1666.15 232.2C1677.95 239 1687.15 248.6 1693.75 261C1700.55 273.2 1703.95 287.5 1703.95 303.9C1703.95 305.1 1703.85 306.5 1703.65 308.1C1703.65 309.7 1703.55 311.2 1703.35 312.6H1568.05V291.9H1688.35L1676.65 299.1C1676.85 288.9 1674.75 279.8 1670.35 271.8C1665.95 263.8 1659.85 257.6 1652.05 253.2C1644.45 248.6 1635.55 246.3 1625.35 246.3C1615.35 246.3 1606.45 248.6 1598.65 253.2C1590.85 257.6 1584.75 263.9 1580.35 272.1C1575.95 280.1 1573.75 289.3 1573.75 299.7V304.5C1573.75 315.1 1576.15 324.6 1580.95 333C1585.95 341.2 1592.85 347.6 1601.65 352.2C1610.45 356.8 1620.55 359.1 1631.95 359.1C1641.35 359.1 1649.85 357.5 1657.45 354.3C1665.25 351.1 1672.05 346.3 1677.85 339.9L1693.75 358.5C1686.55 366.9 1677.55 373.3 1666.75 377.7C1656.15 382.1 1644.25 384.3 1631.05 384.3ZM1789.54 384.3C1776.34 384.3 1763.74 382.5 1751.74 378.9C1739.94 375.3 1730.64 370.9 1723.84 365.7L1735.84 342.9C1742.64 347.5 1751.04 351.4 1761.04 354.6C1771.04 357.8 1781.24 359.4 1791.64 359.4C1805.04 359.4 1814.64 357.5 1820.44 353.7C1826.44 349.9 1829.44 344.6 1829.44 337.8C1829.44 332.8 1827.64 328.9 1824.04 326.1C1820.44 323.3 1815.64 321.2 1809.64 319.8C1803.84 318.4 1797.34 317.2 1790.14 316.2C1782.94 315 1775.74 313.6 1768.54 312C1761.34 310.2 1754.74 307.8 1748.74 304.8C1742.74 301.6 1737.94 297.3 1734.34 291.9C1730.74 286.3 1728.94 278.9 1728.94 269.7C1728.94 260.1 1731.64 251.7 1737.04 244.5C1742.44 237.3 1750.04 231.8 1759.84 228C1769.84 224 1781.64 222 1795.24 222C1805.64 222 1816.14 223.3 1826.74 225.9C1837.54 228.3 1846.34 231.8 1853.14 236.4L1840.84 259.2C1833.64 254.4 1826.14 251.1 1818.34 249.3C1810.54 247.5 1802.74 246.6 1794.94 246.6C1782.34 246.6 1772.94 248.7 1766.74 252.9C1760.54 256.9 1757.44 262.1 1757.44 268.5C1757.44 273.9 1759.24 278.1 1762.84 281.1C1766.64 283.9 1771.44 286.1 1777.24 287.7C1783.24 289.3 1789.84 290.7 1797.04 291.9C1804.24 292.9 1811.44 294.3 1818.64 296.1C1825.84 297.7 1832.34 300 1838.14 303C1844.14 306 1848.94 310.2 1852.54 315.6C1856.34 321 1858.24 328.2 1858.24 337.2C1858.24 346.8 1855.44 355.1 1849.84 362.1C1844.24 369.1 1836.34 374.6 1826.14 378.6C1815.94 382.4 1803.74 384.3 1789.54 384.3ZM1965.03 384.3C1948.03 384.3 1933.03 380.8 1920.03 373.8C1907.23 366.8 1897.23 357.2 1890.03 345C1883.03 332.8 1879.53 318.8 1879.53 303C1879.53 287.2 1882.93 273.2 1889.73 261C1896.73 248.8 1906.23 239.3 1918.23 232.5C1930.43 225.5 1944.13 222 1959.33 222C1974.73 222 1988.33 225.4 2000.13 232.2C2011.93 239 2021.13 248.6 2027.73 261C2034.53 273.2 2037.93 287.5 2037.93 303.9C2037.93 305.1 2037.83 306.5 2037.63 308.1C2037.63 309.7 2037.53 311.2 2037.33 312.6H1902.03V291.9H2022.33L2010.63 299.1C2010.83 288.9 2008.73 279.8 2004.33 271.8C1999.93 263.8 1993.83 257.6 1986.03 253.2C1978.43 248.6 1969.53 246.3 1959.33 246.3C1949.33 246.3 1940.43 248.6 1932.63 253.2C1924.83 257.6 1918.73 263.9 1914.33 272.1C1909.93 280.1 1907.73 289.3 1907.73 299.7V304.5C1907.73 315.1 1910.13 324.6 1914.93 333C1919.93 341.2 1926.83 347.6 1935.63 352.2C1944.43 356.8 1954.53 359.1 1965.93 359.1C1975.33 359.1 1983.83 357.5 1991.43 354.3C1999.23 351.1 2006.03 346.3 2011.83 339.9L2027.73 358.5C2020.53 366.9 2011.53 373.3 2000.73 377.7C1990.13 382.1 1978.23 384.3 1965.03 384.3ZM2132.52 384.3C2116.52 384.3 2104.12 380 2095.32 371.4C2086.52 362.8 2082.12 350.5 2082.12 334.5V188.7H2110.92V333.3C2110.92 341.9 2113.02 348.5 2117.22 353.1C2121.62 357.7 2127.82 360 2135.82 360C2144.82 360 2152.32 357.5 2158.32 352.5L2167.32 373.2C2162.92 377 2157.62 379.8 2151.42 381.6C2145.42 383.4 2139.12 384.3 2132.52 384.3ZM2055.12 247.2V223.5H2156.52V247.2H2055.12Z" fill="white"/>
<defs>
<linearGradient id="paint0_linear_236_774" x1="249.999" y1="422.492" x2="249.996" y2="423.492" gradientUnits="userSpaceOnUse">
<stop stop-color="white"/>
<stop offset="1" stop-opacity="0"/>
</linearGradient>
</defs>
</svg>
